<?xml version="1.0" encoding="UTF-8"?>
<svg version="1.1" xmlns="http://www.w3.org/2000/svg" width="380" height="380">
<path d="M0 0 C7.92798196 -0.23263756 15.85451809 -0.4098376 23.785079 -0.51812172 C27.46854887 -0.57011964 31.14966952 -0.64051778 34.83178711 -0.75439453 C38.39169574 -0.86379116 41.94935966 -0.92298678 45.51082039 -0.94877243 C47.51711863 -0.97599965 49.52252375 -1.053956 51.52745056 -1.13296509 C60.53338551 -1.13844811 60.53338551 -1.13844811 64.7978363 2.17179871 C67.07823554 4.68111844 69.06373112 7.2200621 71 10 C71.9245725 11.15231374 72.85464671 12.30026076 73.79296875 13.44140625 C74.58316406 14.47136719 75.37335938 15.50132813 76.1875 16.5625 C80.32823468 21.90878382 84.56484583 27.16437597 88.875 32.375 C95.08590643 39.88570595 101.2451951 47.43626898 107.38232422 55.00732422 C109.0239671 57.02952301 110.66961516 59.04839838 112.31640625 61.06640625 C117.47802573 67.39590577 122.60537654 73.74461594 127.625 80.1875 C131.65982038 85.36372575 135.83021471 90.40258191 140.09082031 95.39404297 C143.38901926 99.26158791 146.59122428 103.19102963 149.74609375 107.17578125 C151.59931678 109.49793073 153.46795842 111.80481052 155.34765625 114.10546875 C155.93885254 114.82951904 156.53004883 115.55356934 157.13916016 116.29956055 C158.32358866 117.74882122 159.50942658 119.19693134 160.69677734 120.64379883 C161.23898926 121.30790771 161.78120117 121.9720166 162.33984375 122.65625 C162.82831787 123.25244141 163.31679199 123.84863281 163.82006836 124.46289062 C165 126 165 126 166 128 C166.04648585 115.69041932 166.08195147 103.38085977 166.10362434 91.07120895 C166.11402994 85.35440708 166.12812989 79.63766558 166.15087891 73.92089844 C166.17272271 68.39659284 166.18459284 62.87234505 166.18975449 57.34799957 C166.19342962 55.24784689 166.20060585 53.14769712 166.21146011 51.04756927 C166.94105168 32.28496531 166.94105168 32.28496531 161 15 C161 14.34 161 13.68 161 13 C154.06825195 9.38614484 146.62756243 7.53272531 139 6 C139 4.02 139 2.04 139 0 C159.46 0 179.92 0 201 0 C201 1.98 201 3.96 201 6 C200.13117188 6.24234375 199.26234375 6.4846875 198.3671875 6.734375 C189.46007799 9.02332051 189.46007799 9.02332051 182 14 C177.81890082 22.59892615 178.55808038 32.44197922 178.56762695 41.75048828 C178.55859846 43.53519871 178.54826858 45.31990295 178.53674316 47.104599 C178.50927476 51.92411766 178.49990249 56.74351834 178.49388909 61.56310511 C178.48447889 66.60932708 178.45827341 71.65546184 178.43388367 76.70162964 C178.39028764 86.24588242 178.36169834 95.7901182 178.33856028 105.33444011 C178.31147159 116.20513228 178.26756237 127.0757364 178.22227156 137.94636559 C178.12952409 160.29752927 178.05779809 182.64872055 178 205 C171.29638672 205.22949219 171.29638672 205.22949219 168.62890625 203.1640625 C167.60603516 201.90722656 167.60603516 201.90722656 166.5625 200.625 C165.80066406 199.70847656 165.03882813 198.79195312 164.25390625 197.84765625 C163.51011719 196.90792969 162.76632813 195.96820313 162 195 C161.32839844 194.17371094 160.65679687 193.34742188 159.96484375 192.49609375 C158.63669302 190.85108798 157.31789182 189.1984963 156.0078125 187.5390625 C149.52773227 179.34440851 142.80804197 171.33527563 136.16479492 163.27270508 C131.43023628 157.52566053 126.71081214 151.76653087 122 146 C120.50014304 144.16654964 119.0001406 142.33321829 117.5 140.5 C115.30774854 137.8210008 113.11580532 135.14175792 110.92578125 132.4609375 C106.29676182 126.7965921 101.65186094 121.14559447 97 115.5 C90.96463381 108.175355 84.94905771 100.834968 78.9453125 93.484375 C74.30936627 87.812558 69.65832792 82.15344292 65 76.5 C60.35693695 70.86508283 55.71943296 65.22590666 51.1015625 59.5703125 C49.57897183 57.70811052 48.05241576 55.84914847 46.5234375 53.9921875 C45.71132813 53.00476563 44.89921875 52.01734375 44.0625 51 C42.96615234 49.6696875 42.96615234 49.6696875 41.84765625 48.3125 C40 46 40 46 38 43 C37.67 73.69 37.34 104.38 37 136 C34.525 133.525 34.525 133.525 32 131 C31.11985513 130.16475784 31.11985513 130.16475784 30.22192955 129.3126421 C26.42504469 125.41268879 25.31334023 122.57149514 25.27888489 117.14785767 C25.30367416 116.29106415 25.32846344 115.43427063 25.35400391 114.55151367 C25.35622452 113.63021164 25.35844513 112.70890961 25.36073303 111.75968933 C25.36903025 109.76860633 25.39089842 107.77754279 25.42494583 105.78673363 C25.47722013 102.62823344 25.49009655 99.47172866 25.49252319 96.31282043 C25.50742045 87.33649861 25.6006439 78.36120987 25.70117188 69.38549805 C25.76007361 63.88535981 25.77985106 58.38610928 25.77756882 52.88567543 C25.78886039 49.78595194 25.84637658 46.68926832 25.90493774 43.59013367 C26.19921027 32.02494767 26.19921027 32.02494767 21.19677734 21.9152832 C19.83567642 20.57078738 18.43732791 19.262677 17 18 C15.67789465 16.55036908 14.36403257 15.09312987 13.0625 13.625 C9.19796739 9.8296141 5.07418299 7.78536068 0 6 C0 4.02 0 2.04 0 0 Z " fill="#A3C0B4" transform="translate(0,88)"/>
<path d="M0 0 C5.73351907 2.31073476 10.73675464 4.25984821 17 3 C21.33270584 -0.17731762 23.52946389 -4.33343179 26 -9 C28.31 -9 30.62 -9 33 -9 C33 13.44 33 35.88 33 59 C31.02 59 29.04 59 27 59 C26.50371094 57.97261719 26.00742187 56.94523437 25.49609375 55.88671875 C15.1711267 34.72168949 0.88351612 11.76427663 -22.12109375 2.78125 C-35.79101 -1.90366622 -48.42861653 -2.83604022 -62 3 C-77.7445578 11.60821432 -86.86644331 27.60193069 -91.875 44.375 C-97.43757032 64.53612918 -98.12802699 85.19419216 -98 106 C-102.15803929 104.13975247 -104.27096674 101.39906521 -106.9375 97.8125 C-110.95617446 92.54551795 -115.12011226 87.47042709 -119.5 82.5 C-124.74111149 76.53439337 -129.70945852 70.40506321 -134.5625 64.12109375 C-136.9818613 61.02322567 -139.46847467 58.00618633 -142 55 C-132.99310453 30.57541876 -116.23636985 10.30204609 -92.4375 -0.875 C-61.94910641 -14.59831405 -30.3281887 -12.29521163 0 0 Z " fill="#A3C0B4" transform="translate(342,97)"/>
<path d="M0 0 C2.64 1.98 5.28 3.96 8 6 C5.96368258 10.07263484 3.51082106 12.97416776 0.4375 16.25 C-0.10334229 16.8277417 -0.64418457 17.4054834 -1.20141602 18.00073242 C-14.91780024 32.50856358 -31.18243252 42.99085395 -51 47 C-55 47 -55 47 -56.921875 45.1015625 C-57.52515625 44.28429687 -58.1284375 43.46703125 -58.75 42.625 C-59.36359375 41.81289063 -59.9771875 41.00078125 -60.609375 40.1640625 C-62 38 -62 38 -62 36 C-60.741875 35.731875 -59.48375 35.46375 -58.1875 35.1875 C-42.01220473 31.55893631 -28.45364913 26.20828422 -16 15 C-14.70449219 13.86498047 -14.70449219 13.86498047 -13.3828125 12.70703125 C-8.76574917 8.61743658 -4.30394367 4.41720534 0 0 Z " fill="#A3C0B4" transform="translate(372,247)"/>
</svg>
